<?xml version="1.0" encoding="utf-8"?>
<!-- Generator: Adobe Illustrator 15.1.0, SVG Export Plug-In . SVG Version: 6.00 Build 0)  -->
<!DOCTYPE svg PUBLIC "-//W3C//DTD SVG 1.1 Basic//EN" "http://www.w3.org/Graphics/SVG/1.1/DTD/svg11-basic.dtd">
<svg version="1.1" baseProfile="basic" id="Layer_1"
	 xmlns="http://www.w3.org/2000/svg" xmlns:xlink="http://www.w3.org/1999/xlink" x="0px" y="0px" width="414.35px"
	 height="325.29px" viewBox="0 0 414.35 325.29" xml:space="preserve">
<g>
	<g>
		<polygon fill="#010101" points="398.439,325.555 346.916,325.555 208.907,163.814 		"/>
		<polygon fill="#010101" points="285.004,325.555 255.734,325.555 208.109,164.535 		"/>
		<polygon fill="#010101" points="211.375,325.555 185.877,325.555 207.1,164.879 		"/>
		<polygon fill="#010101" points="139.524,325.555 107.41,325.555 206.034,164.772 		"/>
		<polygon fill="#010101" points="35.271,325.555 0,325.555 0,305.072 205.1,164.245 		"/>
		<polygon fill="#010101" points="204.473,163.384 0,235.888 0,201.188 		"/>
		<polygon fill="#010101" points="0,146.356 0,113.214 204.239,162.34 		"/>
		<polygon fill="#010101" points="0,50.4 0,4.273 204.45,161.292 		"/>
		<polygon fill="#010101" points="81.871,0 118.065,0 205.076,160.422 		"/>
		<polygon fill="#010101" points="167.541,0 193.483,0 205.994,159.878 		"/>
		<polygon fill="#010101" points="236.594,0 263.711,0 207.059,159.758 		"/>
		<polygon fill="#010101" points="317.994,0 360.12,0 208.08,160.078 		"/>
		<polygon fill="#010101" points="414.35,34.757 414.35,75.785 208.879,160.792 		"/>
		<polygon fill="#010101" points="414.35,134.683 414.35,167.221 209.328,161.763 		"/>
		<polygon fill="#010101" points="414.35,223.465 414.35,260.735 209.331,162.833 		"/>
	</g>
	<g>
		<polygon fill="#010101" points="398.439,325.555 346.916,325.555 208.907,163.814 		"/>
		<polygon fill="#010101" points="285.004,325.555 255.734,325.555 208.109,164.535 		"/>
		<polygon fill="#010101" points="211.375,325.555 185.877,325.555 207.1,164.879 		"/>
		<polygon fill="#010101" points="139.524,325.555 107.41,325.555 206.034,164.772 		"/>
		<polygon fill="#010101" points="35.271,325.555 0,325.555 0,305.072 205.1,164.245 		"/>
		<polygon fill="#010101" points="204.473,163.384 0,235.888 0,201.188 		"/>
		<polygon fill="#010101" points="0,146.356 0,113.214 204.239,162.34 		"/>
		<polygon fill="#010101" points="0,50.4 0,4.273 204.45,161.292 		"/>
		<polygon fill="#010101" points="81.871,0 118.065,0 205.076,160.422 		"/>
		<polygon fill="#010101" points="167.541,0 193.483,0 205.994,159.878 		"/>
		<polygon fill="#010101" points="236.594,0 263.711,0 207.059,159.758 		"/>
		<polygon fill="#010101" points="317.994,0 360.12,0 208.08,160.078 		"/>
		<polygon fill="#010101" points="414.35,34.757 414.35,75.785 208.879,160.792 		"/>
		<polygon fill="#010101" points="414.35,134.683 414.35,167.221 209.328,161.763 		"/>
		<polygon fill="#010101" points="414.35,223.465 414.35,260.735 209.331,162.833 		"/>
	</g>
</g>
</svg>
